<svg width="8" height="8" viewBox="0 0 8 8" fill="none" xmlns="http://www.w3.org/2000/svg">
<path d="M4.00002 0.666672C4.65314 0.666634 5.29188 0.858465 5.83691 1.21834C6.38193 1.57821 6.80923 2.09027 7.06573 2.69091C7.32223 3.29156 7.39662 3.95432 7.27967 4.59688C7.16272 5.23944 6.85958 5.83349 6.40791 6.30524C5.95623 6.777 5.37591 7.10566 4.73904 7.25043C4.10217 7.39519 3.4368 7.34967 2.82558 7.11951C2.21435 6.88936 1.68421 6.48472 1.30099 5.95585C0.917774 5.42697 0.698366 4.79717 0.67002 4.14467L0.666687 4.00001L0.67002 3.85534C0.7073 2.99717 1.07443 2.18652 1.69484 1.59244C2.31525 0.998366 3.14104 0.666721 4.00002 0.666672Z" fill="black"/>
</svg>
