<svg width="25" height="25" viewBox="0 0 25 25" fill="none" xmlns="http://www.w3.org/2000/svg">
<path d="M12.5 0.416626C5.82996 0.416626 0.416626 5.82996 0.416626 12.5C0.416626 19.17 5.82996 24.5833 12.5 24.5833C19.17 24.5833 24.5833 19.17 24.5833 12.5C24.5833 5.82996 19.17 0.416626 12.5 0.416626ZM18.1066 8.63329C17.9254 10.5425 17.14 15.1825 16.7412 17.3212C16.572 18.2275 16.2337 18.5295 15.9195 18.5658C15.2187 18.6262 14.687 18.1066 14.0104 17.6595C12.947 16.9587 12.3429 16.5237 11.3158 15.847C10.1195 15.0616 10.8929 14.6266 11.5816 13.9258C11.7629 13.7445 14.8562 10.9291 14.9166 10.6754C14.925 10.6369 14.9239 10.597 14.9134 10.5591C14.9028 10.5212 14.8832 10.4865 14.8562 10.4579C14.7837 10.3975 14.687 10.4216 14.6025 10.4337C14.4937 10.4579 12.802 11.5816 9.50329 13.805C9.01996 14.1312 8.58496 14.3004 8.19829 14.2883C7.76329 14.2762 6.94163 14.0466 6.32538 13.8412C5.56413 13.5995 4.97204 13.4666 5.02038 13.0437C5.04454 12.8262 5.34663 12.6087 5.91454 12.3791C9.44288 10.8445 11.787 9.82954 12.9591 9.34621C16.3183 7.94454 17.007 7.70288 17.4662 7.70288C17.5629 7.70288 17.7925 7.72704 17.9375 7.84788C18.0583 7.94454 18.0945 8.07746 18.1066 8.17413C18.0945 8.24663 18.1187 8.46413 18.1066 8.63329Z" fill="black"/>
</svg>
