<svg width="28" height="28" viewBox="0 0 28 28" fill="none" xmlns="http://www.w3.org/2000/svg">
<path d="M14.0012 2.33337C20.4447 2.33337 25.6678 7.55654 25.6678 14C25.6678 20.4435 20.4447 25.6667 14.0012 25.6667C11.9394 25.67 9.91392 25.1244 8.13282 24.0859L2.33916 25.6667L3.91649 19.8707C2.8771 18.0891 2.33104 16.0627 2.33449 14C2.33449 7.55654 7.55766 2.33337 14.0012 2.33337ZM10.0252 8.51671L9.79182 8.52604C9.64076 8.53524 9.49313 8.57493 9.35782 8.64271C9.23126 8.71438 9.11573 8.80397 9.01482 8.90871C8.87482 9.04054 8.79549 9.15487 8.71032 9.26571C8.2788 9.82676 8.04646 10.5156 8.04999 11.2234C8.05232 11.795 8.20166 12.3515 8.43499 12.8719C8.91216 13.9242 9.69732 15.0384 10.7333 16.0709C10.983 16.3194 11.228 16.569 11.4917 16.8012C12.7789 17.9346 14.313 18.7519 15.9717 19.1882L16.6343 19.2897C16.8502 19.3014 17.066 19.285 17.283 19.2745C17.6228 19.257 17.9545 19.165 18.2548 19.005C18.4076 18.9263 18.5567 18.8407 18.7017 18.7484C18.7017 18.7484 18.7518 18.7157 18.8475 18.6434C19.005 18.5267 19.1018 18.4439 19.2325 18.3074C19.3293 18.207 19.4133 18.0892 19.4775 17.955C19.5685 17.7649 19.6595 17.402 19.6968 17.0999C19.7248 16.8689 19.7167 16.7429 19.7132 16.6647C19.7085 16.5399 19.6047 16.4104 19.4915 16.3555L18.8125 16.051C18.8125 16.051 17.7975 15.6089 17.1768 15.3265C17.1119 15.2982 17.0423 15.282 16.9715 15.2787C16.8917 15.2705 16.811 15.2795 16.7349 15.305C16.6589 15.3306 16.5892 15.3721 16.5305 15.4269C16.5247 15.4245 16.4465 15.491 15.603 16.513C15.5546 16.5781 15.4879 16.6273 15.4114 16.6543C15.335 16.6813 15.2522 16.6849 15.1737 16.6647C15.0977 16.6443 15.0232 16.6186 14.9508 16.5877C14.8062 16.527 14.756 16.5037 14.6568 16.4617C13.9872 16.1695 13.3673 15.7747 12.8193 15.2915C12.6723 15.1632 12.5358 15.0232 12.3958 14.8879C11.9368 14.4483 11.5368 13.951 11.2058 13.4085L11.137 13.2977C11.0875 13.2232 11.0476 13.1429 11.018 13.0585C10.9737 12.887 11.0892 12.7494 11.0892 12.7494C11.0892 12.7494 11.3727 12.439 11.5045 12.271C11.6328 12.1077 11.7413 11.949 11.8113 11.8359C11.949 11.6142 11.9922 11.3867 11.9198 11.2105C11.5932 10.4125 11.2548 9.61804 10.9072 8.82937C10.8383 8.67304 10.6342 8.56104 10.4487 8.53887C10.3857 8.53187 10.3227 8.52487 10.2597 8.52021C10.103 8.51242 9.94598 8.51398 9.78949 8.52487L10.0252 8.51671Z" fill="black"/>
</svg>
