<svg width="20" height="20" viewBox="0 0 20 20" fill="none" xmlns="http://www.w3.org/2000/svg">
<path d="M18.3334 10C18.3334 14.6024 14.6024 18.3333 10 18.3333C5.39765 18.3333 1.66669 14.6024 1.66669 10C1.66669 5.39763 5.39765 1.66667 10 1.66667C14.6024 1.66667 18.3334 5.39763 18.3334 10Z" fill="black"/>
<path fill-rule="evenodd" clip-rule="evenodd" d="M10 6.04167C10.3452 6.04167 10.625 6.32149 10.625 6.66667V9.74112L12.5253 11.6414C12.7694 11.8855 12.7694 12.2812 12.5253 12.5253C12.2812 12.7694 11.8855 12.7694 11.6414 12.5253L9.55808 10.4419C9.44087 10.3247 9.37502 10.1658 9.37502 10V6.66667C9.37502 6.32149 9.65484 6.04167 10 6.04167Z" fill="white"/>
</svg>
