<svg width="40" height="40" viewBox="0 0 40 40" fill="none" xmlns="http://www.w3.org/2000/svg">
<circle cx="20" cy="20" r="20" fill="#D9D9D9"/>
<path d="M19.6742 26.192C18.8955 26.192 18.1222 26.0907 17.3542 25.888C16.5969 25.6747 15.9462 25.376 15.4022 24.992L16.4262 23.008C16.8529 23.3173 17.3435 23.5627 17.8982 23.744C18.4635 23.9253 19.0342 24.016 19.6102 24.016C20.2609 24.016 20.7729 23.888 21.1462 23.632C21.5195 23.376 21.7062 23.0187 21.7062 22.56C21.7062 22.272 21.6315 22.016 21.4822 21.792C21.3329 21.568 21.0662 21.3973 20.6822 21.28C20.3089 21.1627 19.7809 21.104 19.0982 21.104H16.2342L16.8102 14.8H23.6422V16.88H17.7382L19.0822 15.696L18.6822 20.192L17.3382 19.008H19.7062C20.8155 19.008 21.7062 19.1627 22.3782 19.472C23.0609 19.7707 23.5569 20.1813 23.8662 20.704C24.1755 21.2267 24.3302 21.8187 24.3302 22.48C24.3302 23.1413 24.1649 23.7547 23.8342 24.32C23.5035 24.8747 22.9915 25.328 22.2982 25.68C21.6155 26.0213 20.7409 26.192 19.6742 26.192Z" fill="black"/>
</svg>
