<svg width="78" height="14" viewBox="0 0 78 14" fill="none" xmlns="http://www.w3.org/2000/svg">
<g clip-path="url(#clip0_1_466)">
<path d="M4.8084 4.28165L1.08674 4.82124L1.02082 4.83465C0.921033 4.86114 0.830066 4.91364 0.757206 4.98679C0.684346 5.05993 0.632204 5.1511 0.606105 5.25099C0.580006 5.35088 0.580885 5.45591 0.608652 5.55534C0.636418 5.65478 0.690079 5.74507 0.764152 5.81699L3.46032 8.4414L2.82449 12.1485L2.8169 12.2127C2.81079 12.3159 2.83222 12.4188 2.879 12.511C2.92577 12.6032 2.99621 12.6813 3.0831 12.7374C3.16999 12.7934 3.2702 12.8253 3.37349 12.8299C3.47677 12.8344 3.57941 12.8115 3.6709 12.7633L6.9994 11.0133L10.3203 12.7633L10.3787 12.7902C10.4749 12.8281 10.5796 12.8397 10.6818 12.8238C10.7841 12.808 10.8803 12.7652 10.9606 12.6999C11.0409 12.6346 11.1023 12.5491 11.1386 12.4522C11.175 12.3553 11.1849 12.2505 11.1673 12.1485L10.5309 8.4414L13.2282 5.8164L13.2737 5.76682C13.3387 5.68677 13.3813 5.59092 13.3972 5.48903C13.4131 5.38715 13.4017 5.28287 13.3642 5.18683C13.3267 5.09078 13.2644 5.0064 13.1836 4.94228C13.1028 4.87817 13.0065 4.8366 12.9045 4.82182L9.18282 4.28165L7.51915 0.909985C7.47101 0.812297 7.39649 0.730036 7.30401 0.672513C7.21154 0.61499 7.10481 0.584503 6.9959 0.584503C6.887 0.584503 6.78027 0.61499 6.68779 0.672513C6.59532 0.730036 6.52079 0.812297 6.47265 0.909985L4.8084 4.28165Z" fill="black"/>
</g>
<g clip-path="url(#clip1_1_466)">
<path d="M20.8084 4.28165L17.0867 4.82124L17.0208 4.83465C16.921 4.86114 16.8301 4.91364 16.7572 4.98679C16.6843 5.05993 16.6322 5.1511 16.6061 5.25099C16.58 5.35088 16.5809 5.45591 16.6087 5.55534C16.6364 5.65478 16.6901 5.74507 16.7642 5.81699L19.4603 8.4414L18.8245 12.1485L18.8169 12.2127C18.8108 12.3159 18.8322 12.4188 18.879 12.511C18.9258 12.6032 18.9962 12.6813 19.0831 12.7374C19.17 12.7934 19.2702 12.8253 19.3735 12.8299C19.4768 12.8344 19.5794 12.8115 19.6709 12.7633L22.9994 11.0133L26.3203 12.7633L26.3787 12.7902C26.4749 12.8281 26.5796 12.8397 26.6818 12.8238C26.7841 12.808 26.8803 12.7652 26.9606 12.6999C27.0409 12.6346 27.1023 12.5491 27.1386 12.4522C27.175 12.3553 27.1849 12.2505 27.1673 12.1485L26.5309 8.4414L29.2282 5.8164L29.2737 5.76682C29.3387 5.68677 29.3813 5.59092 29.3972 5.48903C29.4131 5.38715 29.4017 5.28287 29.3642 5.18683C29.3267 5.09078 29.2644 5.0064 29.1836 4.94228C29.1028 4.87817 29.0065 4.8366 28.9045 4.82182L25.1828 4.28165L23.5192 0.909985C23.471 0.812297 23.3965 0.730036 23.304 0.672513C23.2115 0.61499 23.1048 0.584503 22.9959 0.584503C22.887 0.584503 22.7803 0.61499 22.6878 0.672513C22.5953 0.730036 22.5208 0.812297 22.4727 0.909985L20.8084 4.28165Z" fill="black"/>
</g>
<g clip-path="url(#clip2_1_466)">
<path d="M36.8084 4.28165L33.0867 4.82124L33.0208 4.83465C32.921 4.86114 32.8301 4.91364 32.7572 4.98679C32.6843 5.05993 32.6322 5.1511 32.6061 5.25099C32.58 5.35088 32.5809 5.45591 32.6087 5.55534C32.6364 5.65478 32.6901 5.74507 32.7642 5.81699L35.4603 8.4414L34.8245 12.1485L34.8169 12.2127C34.8108 12.3159 34.8322 12.4188 34.879 12.511C34.9258 12.6032 34.9962 12.6813 35.0831 12.7374C35.17 12.7934 35.2702 12.8253 35.3735 12.8299C35.4768 12.8344 35.5794 12.8115 35.6709 12.7633L38.9994 11.0133L42.3203 12.7633L42.3787 12.7902C42.4749 12.8281 42.5796 12.8397 42.6818 12.8238C42.7841 12.808 42.8803 12.7652 42.9606 12.6999C43.0409 12.6346 43.1023 12.5491 43.1386 12.4522C43.175 12.3553 43.1849 12.2505 43.1673 12.1485L42.5309 8.4414L45.2282 5.8164L45.2737 5.76682C45.3387 5.68677 45.3813 5.59092 45.3972 5.48903C45.4131 5.38715 45.4017 5.28287 45.3642 5.18683C45.3267 5.09078 45.2644 5.0064 45.1836 4.94228C45.1028 4.87817 45.0065 4.8366 44.9045 4.82182L41.1828 4.28165L39.5192 0.909985C39.471 0.812297 39.3965 0.730036 39.304 0.672513C39.2115 0.61499 39.1048 0.584503 38.9959 0.584503C38.887 0.584503 38.7803 0.61499 38.6878 0.672513C38.5953 0.730036 38.5208 0.812297 38.4727 0.909985L36.8084 4.28165Z" fill="black"/>
</g>
<g clip-path="url(#clip3_1_466)">
<path d="M52.8084 4.28165L49.0867 4.82124L49.0208 4.83465C48.921 4.86114 48.8301 4.91364 48.7572 4.98679C48.6843 5.05993 48.6322 5.1511 48.6061 5.25099C48.58 5.35088 48.5809 5.45591 48.6087 5.55534C48.6364 5.65478 48.6901 5.74507 48.7642 5.81699L51.4603 8.4414L50.8245 12.1485L50.8169 12.2127C50.8108 12.3159 50.8322 12.4188 50.879 12.511C50.9258 12.6032 50.9962 12.6813 51.0831 12.7374C51.17 12.7934 51.2702 12.8253 51.3735 12.8299C51.4768 12.8344 51.5794 12.8115 51.6709 12.7633L54.9994 11.0133L58.3203 12.7633L58.3787 12.7902C58.4749 12.8281 58.5796 12.8397 58.6818 12.8238C58.7841 12.808 58.8803 12.7652 58.9606 12.6999C59.0409 12.6346 59.1023 12.5491 59.1386 12.4522C59.175 12.3553 59.1849 12.2505 59.1673 12.1485L58.5309 8.4414L61.2282 5.8164L61.2737 5.76682C61.3387 5.68677 61.3813 5.59092 61.3972 5.48903C61.4131 5.38715 61.4017 5.28287 61.3642 5.18683C61.3267 5.09078 61.2644 5.0064 61.1836 4.94228C61.1028 4.87817 61.0065 4.8366 60.9045 4.82182L57.1828 4.28165L55.5192 0.909985C55.471 0.812297 55.3965 0.730036 55.304 0.672513C55.2115 0.61499 55.1048 0.584503 54.9959 0.584503C54.887 0.584503 54.7803 0.61499 54.6878 0.672513C54.5953 0.730036 54.5208 0.812297 54.4727 0.909985L52.8084 4.28165Z" fill="#C5C5C5"/>
</g>
<g clip-path="url(#clip4_1_466)">
<path d="M68.8084 4.28165L65.0867 4.82124L65.0208 4.83465C64.921 4.86114 64.8301 4.91364 64.7572 4.98679C64.6843 5.05993 64.6322 5.1511 64.6061 5.25099C64.58 5.35088 64.5809 5.45591 64.6087 5.55534C64.6364 5.65478 64.6901 5.74507 64.7642 5.81699L67.4603 8.4414L66.8245 12.1485L66.8169 12.2127C66.8108 12.3159 66.8322 12.4188 66.879 12.511C66.9258 12.6032 66.9962 12.6813 67.0831 12.7374C67.17 12.7934 67.2702 12.8253 67.3735 12.8299C67.4768 12.8344 67.5794 12.8115 67.6709 12.7633L70.9994 11.0133L74.3203 12.7633L74.3787 12.7902C74.4749 12.8281 74.5796 12.8397 74.6818 12.8238C74.7841 12.808 74.8803 12.7652 74.9606 12.6999C75.0409 12.6346 75.1023 12.5491 75.1386 12.4522C75.175 12.3553 75.1849 12.2505 75.1673 12.1485L74.5309 8.4414L77.2282 5.8164L77.2737 5.76682C77.3387 5.68677 77.3813 5.59092 77.3972 5.48903C77.4131 5.38715 77.4017 5.28287 77.3642 5.18683C77.3267 5.09078 77.2644 5.0064 77.1836 4.94228C77.1028 4.87817 77.0065 4.8366 76.9045 4.82182L73.1828 4.28165L71.5192 0.909985C71.471 0.812297 71.3965 0.730036 71.304 0.672513C71.2115 0.61499 71.1048 0.584503 70.9959 0.584503C70.887 0.584503 70.7803 0.61499 70.6878 0.672513C70.5953 0.730036 70.5208 0.812297 70.4727 0.909985L68.8084 4.28165Z" fill="#C5C5C5"/>
</g>
<defs>
<clipPath id="clip0_1_466">
<rect width="14" height="14" fill="white"/>
</clipPath>
<clipPath id="clip1_1_466">
<rect width="14" height="14" fill="white" transform="translate(16)"/>
</clipPath>
<clipPath id="clip2_1_466">
<rect width="14" height="14" fill="white" transform="translate(32)"/>
</clipPath>
<clipPath id="clip3_1_466">
<rect width="14" height="14" fill="white" transform="translate(48)"/>
</clipPath>
<clipPath id="clip4_1_466">
<rect width="14" height="14" fill="white" transform="translate(64)"/>
</clipPath>
</defs>
</svg>
