<svg width="88" height="16" viewBox="0 0 88 16" fill="none" xmlns="http://www.w3.org/2000/svg">
<g clip-path="url(#clip0_15_61)">
<path d="M5.49536 4.89333L1.24203 5.50999L1.16669 5.52533C1.05265 5.5556 0.94869 5.6156 0.865422 5.6992C0.782153 5.78279 0.722563 5.88699 0.692735 6.00115C0.662908 6.1153 0.663912 6.23533 0.695645 6.34898C0.727379 6.46262 0.788705 6.5658 0.87336 6.64799L3.95469 9.64733L3.22803 13.884L3.21936 13.9573C3.21238 14.0753 3.23687 14.193 3.29033 14.2983C3.34378 14.4037 3.42428 14.493 3.52358 14.557C3.62289 14.621 3.73742 14.6575 3.85546 14.6627C3.9735 14.6679 4.0908 14.6417 4.19536 14.5867L7.99936 12.5867L11.7947 14.5867L11.8614 14.6173C11.9714 14.6607 12.091 14.674 12.2079 14.6558C12.3247 14.6377 12.4347 14.5888 12.5264 14.5142C12.6182 14.4395 12.6884 14.3418 12.7299 14.2311C12.7714 14.1203 12.7827 14.0006 12.7627 13.884L12.0354 9.64733L15.118 6.64733L15.17 6.59066C15.2443 6.49917 15.293 6.38963 15.3112 6.27319C15.3293 6.15675 15.3163 6.03758 15.2734 5.92781C15.2305 5.81805 15.1593 5.72162 15.067 5.64834C14.9747 5.57506 14.8647 5.52755 14.748 5.51066L10.4947 4.89333L8.59336 1.03999C8.53834 0.92835 8.45317 0.834337 8.34749 0.768597C8.2418 0.702857 8.11982 0.668015 7.99536 0.668015C7.8709 0.668015 7.74892 0.702857 7.64323 0.768597C7.53755 0.834337 7.45238 0.92835 7.39736 1.03999L5.49536 4.89333Z" fill="black"/>
</g>
<g clip-path="url(#clip1_15_61)">
<path d="M23.4954 4.89333L19.242 5.50999L19.1667 5.52533C19.0527 5.5556 18.9487 5.6156 18.8654 5.6992C18.7822 5.78279 18.7226 5.88699 18.6927 6.00115C18.6629 6.1153 18.6639 6.23533 18.6956 6.34898C18.7274 6.46262 18.7887 6.5658 18.8734 6.64799L21.9547 9.64733L21.228 13.884L21.2194 13.9573C21.2124 14.0753 21.2369 14.193 21.2903 14.2983C21.3438 14.4037 21.4243 14.493 21.5236 14.557C21.6229 14.621 21.7374 14.6575 21.8555 14.6627C21.9735 14.6679 22.0908 14.6417 22.1954 14.5867L25.9994 12.5867L29.7947 14.5867L29.8614 14.6173C29.9714 14.6607 30.091 14.674 30.2079 14.6558C30.3247 14.6377 30.4347 14.5888 30.5264 14.5142C30.6182 14.4395 30.6884 14.3418 30.7299 14.2311C30.7714 14.1203 30.7827 14.0006 30.7627 13.884L30.0354 9.64733L33.118 6.64733L33.17 6.59066C33.2443 6.49917 33.293 6.38963 33.3112 6.27319C33.3293 6.15675 33.3163 6.03758 33.2734 5.92781C33.2305 5.81805 33.1593 5.72162 33.067 5.64834C32.9747 5.57506 32.8647 5.52755 32.748 5.51066L28.4947 4.89333L26.5934 1.03999C26.5383 0.92835 26.4532 0.834337 26.3475 0.768597C26.2418 0.702857 26.1198 0.668015 25.9954 0.668015C25.8709 0.668015 25.7489 0.702857 25.6432 0.768597C25.5375 0.834337 25.4524 0.92835 25.3974 1.03999L23.4954 4.89333Z" fill="black"/>
</g>
<g clip-path="url(#clip2_15_61)">
<path d="M41.4954 4.89333L37.242 5.50999L37.1667 5.52533C37.0527 5.5556 36.9487 5.6156 36.8654 5.6992C36.7822 5.78279 36.7226 5.88699 36.6927 6.00115C36.6629 6.1153 36.6639 6.23533 36.6956 6.34898C36.7274 6.46262 36.7887 6.5658 36.8734 6.64799L39.9547 9.64733L39.228 13.884L39.2194 13.9573C39.2124 14.0753 39.2369 14.193 39.2903 14.2983C39.3438 14.4037 39.4243 14.493 39.5236 14.557C39.6229 14.621 39.7374 14.6575 39.8555 14.6627C39.9735 14.6679 40.0908 14.6417 40.1954 14.5867L43.9994 12.5867L47.7947 14.5867L47.8614 14.6173C47.9714 14.6607 48.091 14.674 48.2079 14.6558C48.3247 14.6377 48.4347 14.5888 48.5264 14.5142C48.6182 14.4395 48.6884 14.3418 48.7299 14.2311C48.7714 14.1203 48.7827 14.0006 48.7627 13.884L48.0354 9.64733L51.118 6.64733L51.17 6.59066C51.2443 6.49917 51.293 6.38963 51.3112 6.27319C51.3293 6.15675 51.3163 6.03758 51.2734 5.92781C51.2305 5.81805 51.1593 5.72162 51.067 5.64834C50.9747 5.57506 50.8647 5.52755 50.748 5.51066L46.4947 4.89333L44.5934 1.03999C44.5383 0.92835 44.4532 0.834337 44.3475 0.768597C44.2418 0.702857 44.1198 0.668015 43.9954 0.668015C43.8709 0.668015 43.7489 0.702857 43.6432 0.768597C43.5375 0.834337 43.4524 0.92835 43.3974 1.03999L41.4954 4.89333Z" fill="black"/>
</g>
<g clip-path="url(#clip3_15_61)">
<path d="M59.4954 4.89333L55.242 5.50999L55.1667 5.52533C55.0527 5.5556 54.9487 5.6156 54.8654 5.6992C54.7822 5.78279 54.7226 5.88699 54.6927 6.00115C54.6629 6.1153 54.6639 6.23533 54.6956 6.34898C54.7274 6.46262 54.7887 6.5658 54.8734 6.64799L57.9547 9.64733L57.228 13.884L57.2194 13.9573C57.2124 14.0753 57.2369 14.193 57.2903 14.2983C57.3438 14.4037 57.4243 14.493 57.5236 14.557C57.6229 14.621 57.7374 14.6575 57.8555 14.6627C57.9735 14.6679 58.0908 14.6417 58.1954 14.5867L61.9994 12.5867L65.7947 14.5867L65.8614 14.6173C65.9714 14.6607 66.091 14.674 66.2079 14.6558C66.3247 14.6377 66.4347 14.5888 66.5264 14.5142C66.6182 14.4395 66.6884 14.3418 66.7299 14.2311C66.7714 14.1203 66.7827 14.0006 66.7627 13.884L66.0354 9.64733L69.118 6.64733L69.17 6.59066C69.2443 6.49917 69.293 6.38963 69.3112 6.27319C69.3293 6.15675 69.3163 6.03758 69.2734 5.92781C69.2305 5.81805 69.1593 5.72162 69.067 5.64834C68.9747 5.57506 68.8647 5.52755 68.748 5.51066L64.4947 4.89333L62.5934 1.03999C62.5383 0.92835 62.4532 0.834337 62.3475 0.768597C62.2418 0.702857 62.1198 0.668015 61.9954 0.668015C61.8709 0.668015 61.7489 0.702857 61.6432 0.768597C61.5375 0.834337 61.4524 0.92835 61.3974 1.03999L59.4954 4.89333Z" fill="black"/>
</g>
<g clip-path="url(#clip4_15_61)">
<path d="M77.4954 4.89333L73.242 5.50999L73.1667 5.52533C73.0527 5.5556 72.9487 5.6156 72.8654 5.6992C72.7822 5.78279 72.7226 5.88699 72.6927 6.00115C72.6629 6.1153 72.6639 6.23533 72.6956 6.34898C72.7274 6.46262 72.7887 6.5658 72.8734 6.64799L75.9547 9.64733L75.228 13.884L75.2194 13.9573C75.2124 14.0753 75.2369 14.193 75.2903 14.2983C75.3438 14.4037 75.4243 14.493 75.5236 14.557C75.6229 14.621 75.7374 14.6575 75.8555 14.6627C75.9735 14.6679 76.0908 14.6417 76.1954 14.5867L79.9994 12.5867L83.7947 14.5867L83.8614 14.6173C83.9714 14.6607 84.091 14.674 84.2079 14.6558C84.3247 14.6377 84.4347 14.5888 84.5264 14.5142C84.6182 14.4395 84.6884 14.3418 84.7299 14.2311C84.7714 14.1203 84.7827 14.0006 84.7627 13.884L84.0354 9.64733L87.118 6.64733L87.17 6.59066C87.2443 6.49917 87.293 6.38963 87.3112 6.27319C87.3293 6.15675 87.3163 6.03758 87.2734 5.92781C87.2305 5.81805 87.1593 5.72162 87.067 5.64834C86.9747 5.57506 86.8647 5.52755 86.748 5.51066L82.4947 4.89333L80.5934 1.03999C80.5383 0.92835 80.4532 0.834337 80.3475 0.768597C80.2418 0.702857 80.1198 0.668015 79.9954 0.668015C79.8709 0.668015 79.7489 0.702857 79.6432 0.768597C79.5375 0.834337 79.4524 0.92835 79.3974 1.03999L77.4954 4.89333Z" fill="#C5C5C5"/>
</g>
<defs>
<clipPath id="clip0_15_61">
<rect width="16" height="16" fill="white"/>
</clipPath>
<clipPath id="clip1_15_61">
<rect width="16" height="16" fill="white" transform="translate(18)"/>
</clipPath>
<clipPath id="clip2_15_61">
<rect width="16" height="16" fill="white" transform="translate(36)"/>
</clipPath>
<clipPath id="clip3_15_61">
<rect width="16" height="16" fill="white" transform="translate(54)"/>
</clipPath>
<clipPath id="clip4_15_61">
<rect width="16" height="16" fill="white" transform="translate(72)"/>
</clipPath>
</defs>
</svg>
