<svg width="24" height="24" viewBox="0 0 24 24" fill="none" xmlns="http://www.w3.org/2000/svg">
<path d="M12.0012 0.333374C18.4447 0.333374 23.6678 5.55654 23.6678 12C23.6678 18.4435 18.4447 23.6667 12.0012 23.6667C9.9394 23.67 7.91392 23.1244 6.13282 22.0859L0.339156 23.6667L1.91649 17.8707C0.877098 16.0891 0.331045 14.0627 0.334489 12C0.334489 5.55654 5.55766 0.333374 12.0012 0.333374ZM8.02516 6.51671L7.79182 6.52604C7.64076 6.53524 7.49313 6.57493 7.35782 6.64271C7.23126 6.71438 7.11573 6.80397 7.01482 6.90871C6.87482 7.04054 6.79549 7.15487 6.71032 7.26571C6.2788 7.82676 6.04646 8.51557 6.04999 9.22337C6.05232 9.79504 6.20166 10.3515 6.43499 10.8719C6.91216 11.9242 7.69732 13.0384 8.73332 14.0709C8.98299 14.3194 9.22799 14.569 9.49166 14.8012C10.7789 15.9346 12.313 16.7519 13.9717 17.1882L14.6343 17.2897C14.8502 17.3014 15.066 17.285 15.283 17.2745C15.6228 17.257 15.9545 17.165 16.2548 17.005C16.4076 16.9263 16.5567 16.8407 16.7017 16.7484C16.7017 16.7484 16.7518 16.7157 16.8475 16.6434C17.005 16.5267 17.1018 16.4439 17.2325 16.3074C17.3293 16.207 17.4133 16.0892 17.4775 15.955C17.5685 15.7649 17.6595 15.402 17.6968 15.0999C17.7248 14.8689 17.7167 14.7429 17.7132 14.6647C17.7085 14.5399 17.6047 14.4104 17.4915 14.3555L16.8125 14.051C16.8125 14.051 15.7975 13.6089 15.1768 13.3265C15.1119 13.2982 15.0423 13.282 14.9715 13.2787C14.8917 13.2705 14.811 13.2795 14.7349 13.305C14.6589 13.3306 14.5892 13.3721 14.5305 13.4269C14.5247 13.4245 14.4465 13.491 13.603 14.513C13.5546 14.5781 13.4879 14.6273 13.4114 14.6543C13.335 14.6813 13.2522 14.6849 13.1737 14.6647C13.0977 14.6443 13.0232 14.6186 12.9508 14.5877C12.8062 14.527 12.756 14.5037 12.6568 14.4617C11.9872 14.1695 11.3673 13.7747 10.8193 13.2915C10.6723 13.1632 10.5358 13.0232 10.3958 12.8879C9.93684 12.4483 9.53683 11.951 9.20582 11.4085L9.13699 11.2977C9.08755 11.2232 9.04757 11.1429 9.01799 11.0585C8.97366 10.887 9.08916 10.7494 9.08916 10.7494C9.08916 10.7494 9.37265 10.439 9.50449 10.271C9.63282 10.1077 9.74132 9.94904 9.81132 9.83587C9.94899 9.61421 9.99216 9.38671 9.91982 9.21054C9.59315 8.41254 9.25482 7.61804 8.90716 6.82937C8.83832 6.67304 8.63416 6.56104 8.44866 6.53887C8.38566 6.53187 8.32265 6.52487 8.25965 6.52021C8.10298 6.51242 7.94598 6.51398 7.78949 6.52487L8.02516 6.51671Z" fill="black"/>
</svg>
